<?xml version="1.0" encoding="UTF-8"?>
<svg version="1.1" viewBox="0 0 2048 804" width="1280" height="1280" xmlns="http://www.w3.org/2000/svg">
<path transform="translate(0)" d="m0 0h2048v804h-2048z" fill="#FDFDFD"/>
<path transform="translate(230,132)" d="m0 0h204l-3 9-7 9-9 6-6 3-9 1h-145l-4 19-18 86-4 20 1 1 41 1 4-14 8-36 1-1 203-1-1 6-6 9-9 8-10 4-8 1h-140l-4 1-3 9-3 13 61 1-2 6-6 10-11 8-11 4-36 1-4 15-11 53v6l134 1-3 9-9 10-14 7-3 1h-138l-4-1 1-11 14-66 4-25-42 1-2 6-12 56-12 57-4 12-6 8-9 8-9 4-11 2 11-54 24-113 27-128 9-41z" fill="#DF0487"/>
<path transform="translate(343,180)" d="m0 0h203l-1 8-12 56-12 57-21 100-18 85-6 27-2 4-9 1h-191l-4-1 2-5 6-9 7-7 12-6 5-1 147-1 4-14 21-99 1-12-134-1 1-6 6-8 7-7 12-6 3-1h113l2-12 15-71 9-42h-147l-9-3-7-6-4-8-1-3v-8z" fill="#04ABEC"/>
<path transform="translate(472,235)" d="m0 0h15l-1 6-6 9-9 8-10 4-8 1h-140l-4 1-3 9-3 13 61 1-2 6-6 10-11 8-11 4-36 1-4 15-11 53v6l134 1-3 9-9 10-14 7-3 1h-138l-4-1 1-11 14-66 3-17 2-15 4-19 4-11 8-38 2-4z" fill="#FDB151"/>
<path transform="translate(1461,398)" d="m0 0 10 1 11 4 8 6 7 9 4 10 1 5v18l-4 16-7 14-11 12-9 7-11 5-4 1h-19l-9-4-8-6-2-4h-2l-4 20-7 32-1 1h-24l10-48 12-56 7-34 2-6h22l-1 11 7-6 11-6z" fill="#261F24"/>
<path transform="translate(884,399)" d="m0 0h17l9 4 8 7 4 4 3-13h24l-3 18-12 56v19l1 7-16 4-7 1-2-8v-5l-5 3-9 6-9 4h-19l-9-4-8-6-6-7-5-11-2-16 2-15 6-16 7-11 9-10 11-7z" fill="#261F23"/>
<path transform="translate(768,197)" d="m0 0h9l10 3 8 6 6 7 2 1 1-13 1-1h24l-5 26-10 49v18l1 7-11 3-12 1-1-1-1-11-5 3-11 7-9 3h-16l-10-4-8-6-6-7-5-12-1-4v-21l4-15 8-15 9-10 9-7 13-6z" fill="#261F24"/>
<path transform="translate(1176,197)" d="m0 0h9l14 3 11 6 8 9 5 10 2 9v14l-3 13-4 10-6 10-10 11-11 7-8 4-16 3-10-1-11-3-11-7-7-8-5-11-1-4v-21l3-12 8-15 8-10 10-8 12-6 6-2z" fill="#271F24"/>
<path transform="translate(1571,399)" d="m0 0h21l11 4 9 6 7 8 5 10 2 9v12l-3 13-4 11-7 11-9 10-11 7-12 5-3 1h-22l-12-5-6-4-7-7-6-12-2-12 1-15 4-13 6-12 9-11 10-8 12-6z" fill="#271F24"/>
<path transform="translate(690,354)" d="m0 0h16l13 3 12 6 9 8 8 14 3 9v5l-10 4-11 3-4-1-5-13-8-9-11-4h-12l-11 4-11 7-9 10-9 16-4 12-2 10v16l4 13 6 8 10 5 8 2 13-1 11-4 9-7 7-8 6-9 5 1 18 9-2 5-8 11-13 13-13 8-14 5-5 1h-24l-15-5-11-7-8-8-6-10-4-11-2-11v-11l2-15 5-17 8-16 8-11 14-14 11-7 13-6z" fill="#261F24"/>
<path transform="translate(1200,357)" d="m0 0h88l-2 14-2 8-6 1-57 1-6 26-2 11h48l-2 13-3 9-1 1-47 1-6 26-2 12 64 1-1 8-3 14-1 1h-90l1-9 26-123z" fill="#271F24"/>
<path transform="translate(966,156)" d="m0 0h25l-2 12-8 39-1 3 14-9 7-3 6-1h8l12 3 9 6 5 7 3 9 1 5v9l-6 31-7 32-2 4h-23l1-8 11-52v-12l-5-8-6-3-7-1-10 2-7 4-6 7-5 12-12 57-1 2h-24l2-12 20-95 7-33z" fill="#271F24"/>
<path transform="translate(640,156)" d="m0 0h91l-4 21-1 1h-65l-9 45h50l-2 14-3 9-50 1-12 54-1 2h-25l2-12 23-109z" fill="#251F23"/>
<path transform="translate(1311,197)" d="m0 0h8l8 2 10 5 6 7 4 9 1 5v13l-5 25-8 38-1 2h-23l-1-2 12-57v-14l-6-8-4-2-10-1-10 3-8 6-6 10-6 26-8 38-1 1h-23l-1-2 18-84 4-17h23l-2 10 7-4 10-6z" fill="#271F24"/>
<path transform="translate(1026,354)" d="m0 0h13l13 4 4 3-2 5-7 12-5-1-2-1h-14l-7 5-5 12-1 7 27 1-4 19-1 1-27 1-8 36-9 43-2 3h-23l1-8 13-61 3-14h-19l1-11 2-9 21-1 1-8 5-14 7-11 10-8 10-4z" fill="#281F25"/>
<path transform="translate(885,197)" d="m0 0h9l11 2 12 5 10 8 1 3-16 13-4-2-8-6-10-2-10 1-6 4-2 4 1 7 8 5 20 7 10 6 4 5 3 7v15l-4 10-5 6-12 7-12 3-11 1-18-3-12-5-11-9-1-3 13-11 5-2 10 8 8 3h16l8-5 1-2v-8l-8-5-22-8-10-7-5-8-1-4v-9l2-9 7-10 10-7 11-4z" fill="#281F24"/>
<path transform="translate(1851,398)" d="m0 0 15 1 12 4 10 6 5 5-2 4-11 9-4 2-8-6-6-3h-16l-6 3-2 3v8l1 3 5 2 24 9 9 6 5 7 2 7v9l-3 10-6 8-10 7-13 4h-24l-12-4-11-6-7-7 2-4 11-9 2-2 4 1 7 6 6 3 9 2 10-1 7-3 3-5-1-7-8-5-19-7-9-5-7-7-2-5v-16l4-9 7-8 10-6 10-3z" fill="#271F24"/>
<path transform="translate(1297,401)" d="m0 0h26l8 21 4 12h2l7-10 8-10 10-13h28l-4 6-8 9-9 11-11 13-8 10 1 7 15 35 4 10v2h-25l-5-12-9-24h-2l-9 12-14 18-5 6h-26v-3l8-9 9-11 11-13 8-10 6-8-19-45z" fill="#271F24"/>
<path transform="translate(1075,371)" d="m0 0h22v7l-5 23h27l-3 16-2 4-26 1-10 46v14l5 3 11-1 3-1 5 14v5l-11 4h-20l-10-5-6-7-3-7v-14l11-52h-19l1-9 3-11 20-1 4-18 2-10z" fill="#281F25"/>
<path transform="translate(1758,371)" d="m0 0h22l-1 11-3 15v3l26 1-3 18-1 2-27 1-7 32-4 19 1 9 2 2 7 1 7-1h4l5 15-1 3-11 4h-19l-9-4-7-6-4-10v-12l11-52-19-1 1-9 3-11 20-1 3-12z" fill="#281F24"/>
<path transform="translate(1706,399)" d="m0 0h16l-2 10-4 12-2 3h-14l-8 2-8 6-7 14-12 57-1 1h-23l-1-2 19-90 3-11 2-1 21 1-2 12 8-6 9-6z" fill="#281F25"/>
<path transform="translate(821,399)" d="m0 0h16l-3 12-4 12-5 1h-11l-9 3-6 5-5 8-4 13-10 47-2 4h-23l2-13 19-90h23l-1 10-1 3 11-9 9-5z" fill="#281F25"/>
<path transform="translate(1172,219)" d="m0 0h14l8 4 5 7 1 3v18l-4 12-7 11-9 7-8 3h-9l-8-3-5-4-4-8v-16l5-15 9-12 7-5z" fill="#FEFEFE"/>
<path transform="translate(1574,420)" d="m0 0h12l8 4 5 6 2 5v16l-3 10-5 10-6 7-10 6-3 1h-12l-8-4-5-6-2-4v-18l4-12 6-9 4-5 10-6z" fill="#FEFEFE"/>
<path transform="translate(1450,420)" d="m0 0h12l8 4 5 6 3 9v11l-3 12-6 11-7 7-10 5h-13l-8-5-5-6-2-6v-16l5-14 7-9 7-6z" fill="#FEFEFE"/>
<path transform="translate(888,420)" d="m0 0h12l6 3 6 7 2 5 1 13-3 13-6 12-8 8-8 4h-13l-8-5-4-6-2-8v-12l3-12 6-10 4-5 9-6z" fill="#FEFEFE"/>
<path transform="translate(767,219)" d="m0 0h13l6 3 6 7 2 5v18l-4 13-7 10-7 6-8 3h-9l-7-3-5-5-4-9v-16l4-12 6-10 8-7z" fill="#FEFEFE"/>
<path transform="translate(1083,200)" d="m0 0h24l-2 12-18 86-2 5h-23l-1-2 17-80 4-20z" fill="#271F24"/>
<path transform="translate(305,287)" d="m0 0h59l-2 6-6 10-11 8-11 4h-35l1-9 4-18z" fill="#DF0487"/>
<path transform="translate(165,602)" d="m0 0 7 1 7 10 13 20 2 3 3-1 21-31 3-2 5 1v59l-1 1h-5l-1-1-1-42h-2l-11 16-8 11h-4l-15-22-5-6-1 1-1 43h-6z" fill="#149DD3"/>
<path transform="translate(647,618)" d="m0 0h10l6 3 5 5 4 8 1 3v7l-35 1 1 7 5 5 6 2 9-1 6-3 4 1-1 4-9 4-9 1-10-4-7-7-3-7v-10l4-10 8-7z" fill="#149ED4"/>
<path transform="translate(437,617)" d="m0 0 9 1 6 5 4 10v29l-5 1-3-3-8 4-8 1-9-4-4-8 2-7 4-4 9-3 16-2-2-8-4-4-3-1h-7l-5 2h-5l-1-3 11-5z" fill="#139ED4"/>
<path transform="translate(257,617)" d="m0 0 8 1 6 5 3 6 1 7v25l-1 2-5-1-2-2-9 4-8 1-6-3-5-5-1-6 3-7 7-4 20-3v-6l-4-6-3-1h-8l-5 2h-5l-1-3 7-4z" fill="#139FD6"/>
<path transform="translate(1029,617)" d="m0 0 9 1 7 6 3 7v31l-5 1-2-3-10 4h-10l-6-4-3-4v-8l3-5 6-3 20-3v-7l-4-5-3-1h-8l-5 2h-5l-1-3 8-4z" fill="#149ED4"/>
<path transform="translate(1655,617)" d="m0 0 7 1 6 4 4 8v33h-5l-1-3-13 5-7-1-6-4-3-4v-9l5-5 9-3 16-2-3-10-4-3h-8l-6 2h-5v-4l10-4z" fill="#139ED5"/>
<path transform="translate(1705,623)" d="m0 0h8l6 3 4 5 2 4v12l-3 6-5 5-6 2-9-1-5-3-4-5-1-3v-13l3-6 5-4z" fill="#FEFEFE"/>
<path transform="translate(757,623)" d="m0 0h8l6 3 5 6 2 5v9l-4 8-5 4-5 2-9-1-6-4-4-5-1-4v-8l3-8 6-5z" fill="#FEFEFE"/>
<path transform="translate(1469,623)" d="m0 0h7l7 3 5 6 2 7-1 9-4 6-4 4-6 2-8-1-6-4-4-5-1-3v-10l3-7 7-6z" fill="#FEFEFE"/>
<path transform="translate(1414,623)" d="m0 0h9l7 4 4 6 1 5v7l-3 8-6 5-5 2-8-1-6-3-4-5-1-4v-12l3-6 5-4z" fill="#FEFEFE"/>
<path transform="translate(1190,623)" d="m0 0h9l7 4 5 8v13l-4 6-5 4-5 2-8-1-6-4-4-5-1-3v-12l5-8z" fill="#FEFEFE"/>
<path transform="translate(889,602)" d="m0 0h5l1 1v59l-1 1h-5l-1-2v-24h-30l-1 26h-6v-60h6l1 6v21l28-1 2-1z" fill="#149DD3"/>
<path transform="translate(1418,617)" d="m0 0 9 2 8 6 5 9 1 4v8l-3 8-5 6-8 4-7 1-9-3-6-3-1 20-1 1h-5v-61h5l3 5 7-5zm-4 6-8 5-3 4-1 3v12l3 7 5 4 7 2 6-1 6-3 4-5 2-6v-7l-3-9-6-5-3-1z" fill="#149ED4"/>
<path transform="translate(1686,603)" d="m0 0h5l1 1 1 20 8-5 6-2 8 1 8 5 5 6 3 8v10l-5 10-8 6-3 1h-11l-10-5-3 4h-5zm19 20-8 4-4 5-1 3v13l4 7 3 3 7 2 8-1 5-3 5-6 1-3v-12l-5-8-4-3-3-1z" fill="#149ED5"/>
<path transform="translate(1305,602)" d="m0 0h30l1 1v5l-25 1 1 18 22 1 1 1v5l-23 1v21l1 1 25 1-1 5h-32z" fill="#149ED4"/>
<path transform="translate(1101,153)" d="m0 0h8l5 3 3 5v8l-3 6-7 6-6 2-9-1-5-6v-11l4-6 5-4z" fill="#271F24"/>
<path transform="translate(974,602)" d="m0 0h30l1 1v5l-26 1 1 20 22 1v5l-1 1h-22l-1 27h-6v-60z" fill="#149DD3"/>
<path transform="translate(1193,617)" d="m0 0 10 2 8 6 6 10 1 7-2 8-6 9-10 5h-11l-8-4-7-8-2-6v-10l5-10 7-6zm-3 6-8 5-4 7v12l3 6 6 5 6 2 7-1 6-4 4-5 1-2v-13l-5-8-7-4z" fill="#149ED4"/>
<path transform="translate(1595,602)" d="m0 0h32l1 1v5l-27 1 1 19 2 1 21 1-1 6-22 1-1 25-1 1h-5z" fill="#149DD3"/>
<path transform="translate(1468,618)" d="m0 0h10l8 4 7 8 2 5v14l-5 8-8 6-3 1h-12l-8-4-6-7-3-7v-9l4-9 4-5zm1 5-6 3-5 5-2 6v10l3 6 6 5 6 2 7-1 5-3 5-6 2-6-1-10-4-6-5-4-4-1z" fill="#149ED4"/>
<path transform="translate(1104,602)" d="m0 0 4 1 1 21 8-5 7-2 9 4 6 8 1 3v30l-5 1-1-1-1-30-2-6-6-2h-7l-6 4-3 5-1 30h-5v-60z" fill="#149ED3"/>
<path transform="translate(757,618)" d="m0 0h9l8 4 7 8 2 5v14l-5 8-6 5-5 2h-12l-8-4-6-7-3-9 1-10 6-10 8-5zm0 5-8 5-4 6-1 4v8l3 7 6 5 5 2h6l8-4 5-7 1-3v-9l-4-8-6-5-3-1z" fill="#149ED4"/>
<path transform="translate(307,617)" d="m0 0 8 1 7 6 4 9v29l-1 1h-5v-25l-2-9-4-4-3-1h-7l-7 4-2 5-1 29-1 1h-5v-43l4-1 2 1 1 3 5-2z" fill="#149ED4"/>
<path transform="translate(555,619)" d="m0 0 2 1 1 32 4 5 5 2 7-1 5-3 3-5 1-29 2-2h3l1 15v27l-1 2-5-1-1-2-10 4h-10l-8-6-3-6-1-12v-16l1-4z" fill="#139ED5"/>
<path transform="translate(1249,617)" d="m0 0 9 3 6 7 2 5v31h-5l-1-1-1-32-5-5-3-1h-7l-6 4-2 2-1 30-2 3h-4v-43l4-1 4 4 6-4z" fill="#139ED5"/>
<path transform="translate(341,619)" d="m0 0 4 1 1 29 3 7 6 3 8-1 5-3 2-5 1-30h6v43h-5l-2-3-10 4h-9l-6-4-4-5-2-7v-22z" fill="#149ED4"/>
<path transform="translate(1076,617)" d="m0 0 9 3 4 4v3h-5l-5-3h-7l-5 5 1 5 6 3 12 4 4 2 2 3v10l-5 6-9 3-8-1-6-3-3-3v-3h5l4 3 9 1 6-4 1-1v-5l-5-3-14-4-5-5-1-2v-8l3-5 8-4z" fill="#139FD5"/>
<path transform="translate(1349,619)" d="m0 0 6 1 10 15 4-4 8-11 7-1-2 5-10 14 1 7 7 11 4 5v2l-7-1-10-14-3 1-7 10-4 4h-6l7-11 7-10-1-5-6-8-5-7z" fill="#149ED5"/>
<path transform="translate(1813,617)" d="m0 0 9 2 9 6 1 4-3 1-8-5-3-1h-8l-8 5-3 6v14l4 6 9 4 7-1 8-4 4-1 1 4-9 6-7 2-8-1-8-4-5-6-3-6v-13l3-7 4-5 10-5z" fill="#149ED4"/>
<path transform="translate(1857,617)" d="m0 0 9 3 5 5-1 2-5-1-4-2h-8l-3 1-1 6 2 5 15 4 6 4 2 3v8l-6 7-4 2h-13l-8-5 1-4 4 1 6 3h7l6-4 1-5-3-3-16-5-5-5-1-2v-8l3-5 7-4z" fill="#149ED4"/>
<path transform="translate(488,617)" d="m0 0 9 2 6 3 4 4v3h-5l-6-4-3-1h-7l-6 3-5 6-1 3v12l4 6 3 3 6 2 8-1 8-5 4 1v3l-9 6-3 1h-11l-8-4-7-8-2-6v-10l5-10 6-5z" fill="#149ED4"/>
<path transform="translate(407,601)" d="m0 0 5 1-1 4-7 1-2 5-1 7h10l1 3-2 3-9 1v36l-5 1-1-5v-32l-6-1-1-5 7-1 1-9 4-6z" fill="#129FD7"/>
<path transform="translate(809,601)" d="m0 0h5l1 3-1 2-8 2-1 2-1 9h10v5l-9 2-1 33-1 4h-5l-1-36-6-3v-4l6-2 3-11 4-4z" fill="#139FD6"/>
<path transform="translate(526,610)" d="m0 0 3 1v8h9l2 4-9 3h-2l1 28 3 3 7 2-2 4-8-1-5-4-2-7-1-26-6-1 1-4 5-2 2-7z" fill="#139FD6"/>
<path transform="translate(1542,611)" d="m0 0h6l2 8 9 1v4l-10 1v24l1 7 1 1 8 1v4l-7 1-6-3-3-5-1-4v-26l-7-1v-4l7-1z" fill="#149DD3"/>
<path transform="translate(648,623)" d="m0 0h7l6 3 5 6 1 7-2 1h-27l-1-1v-6l5-7z" fill="#FEFEFE"/>
<path transform="translate(1526,618)" d="m0 0h2v6l-3 2-7 2-3 3-1 3-1 23-2 6-5-1v-35l1-7h6v5l7-4z" fill="#139FD6"/>
<path transform="translate(1026,643)" d="m0 0h15l1 2v7l-2 4-6 4-10 1-7-6v-6l4-4z" fill="#FEFEFE"/>
<path transform="translate(621,618)" d="m0 0h2v7l-7 2-4 2-3 9-1 25h-6v-43l1-1h5v6l9-5z" fill="#159DD3"/>
<path transform="translate(434,643)" d="m0 0h14l2 2v8l-7 6-4 2h-8l-5-4-1-7 2-4z" fill="#FEFEFE"/>
<path transform="translate(1651,643)" d="m0 0h14l2 2v7l-5 6-7 3h-7l-6-6v-6l6-5z" fill="#FEFEFE"/>
<path transform="translate(253,643)" d="m0 0h14l2 2v7l-5 6-7 3h-6l-6-4-1-2v-6l6-5z" fill="#FEFEFE"/>
<path transform="translate(702,618)" d="m0 0 3 1-1 6-9 3-4 7-1 27-5 1-1-1v-42l5-1 1 1v5l7-4z" fill="#159DD2"/>
<path transform="translate(1686,603)" d="m0 0h5l1 1 1 20 8-5 6-1v5l-10 5-3 4-1 3-1 12h-1l-1-7h-2l-1 10h-1z" fill="#149ED4"/>
<path transform="translate(759,618)" d="m0 0h7l8 4 7 8 2 5v14l-5 8-6 5-6 2-4-1v-2h4v-3l7-4 4-8v-9l-4-8-5-4-10-3z" fill="#139ED5"/>
<path transform="translate(1760,618)" d="m0 0h3v8l-10 2-3 4-1 6-1 24-5 1-1-2 1-42 5 1 1 4 4-1 5-4z" fill="#159DD3"/>
<path transform="translate(1122,617)" d="m0 0 10 3 6 7 2 5v30l-5 1-1-1-1-30-2-6-10-3 1-3-2-1z" fill="#159DD2"/>
<path transform="translate(1158,619)" d="m0 0 3 1v43h-5l-1-1v-42z" fill="#149ED4"/>
<path transform="translate(1687,633)" d="m0 0h1v7l3-1 1 8 6 9 8 3h8l-1 3-6 2-6-1-7-4-3 4h-5v-13z" fill="#11A0D8"/>
<path transform="translate(365,180)" d="m0 0h181l-1 7h-1v-5l-2 3-19-2v-1l-158-1z" fill="#159DD2"/>
<path transform="translate(1797,646)" d="m0 0 6 9 9 4 7-1 8-4 4-1 1 4-9 6-7 2-8-1-8-4-5-6-2-6 3 1z" fill="#149DD3"/>
<path transform="translate(910,619)" d="m0 0 5 1v43h-5z" fill="#159DD2"/>
<path transform="translate(1776,619)" d="m0 0 4 1v43h-5v-43z" fill="#129FD6"/>
<path transform="translate(1212,633)" d="m0 0h4l2 9-2 8-6 9-7 4h-5l-1-4 8-4 4-5 1-2 1-12z" fill="#129FD6"/>
<path transform="translate(1707,617)" d="m0 0 8 1 8 5 5 6 3 8-1 2-5-3-6-9-6-3-7-2z" fill="#12A0D8"/>
<path transform="translate(931,635)" d="m0 0h27l-1 5h-26z" fill="#159DD2"/>
<path transform="translate(1651,618)" d="m0 0 7 1 1 3 5 1 2 3-4-1-2-1h-8l-6 2h-5v-4z" fill="#0FA2DC"/>
<path transform="translate(1828,653)" d="m0 0 4 1-1 4-8 5-7 2h-5l1-2 4-2v-2l9-4z" fill="#0EA2DC"/>
<path transform="translate(1358,647)" d="m0 0 1 4 4-2-2 5-6 8-2 1h-6l7-11z" fill="#149ED4"/>
<path transform="translate(759,618)" d="m0 0h7l8 4 2 2-1 4h-3l-4-3-10-3z" fill="#12A0D7"/>
<path transform="translate(503,653)" d="m0 0 4 1v3l-9 6-5 1-3-1v-2h2v-2l10-5z" fill="#11A0D9"/>
<path transform="translate(702,618)" d="m0 0 3 1-1 6-12 4 1-5z" fill="#11A0D9"/>
<path transform="translate(1379,619)" d="m0 0h5l-2 5-5 7-4-1 1-1 1-7z" fill="#0EA3DD"/>
<path transform="translate(1086,654)" d="m0 0h4l-1 4-3 1h-2l-1 3-7 1-4-1-1-3h8l6-4z" fill="#06A9E9"/>
<path transform="translate(219,608)" d="m0 0h3v6l-3 2-1 3-4 1-1-4z" fill="#04ABEC"/>
<path transform="translate(285,496)" d="m0 0 2 1-10 11-2 6v3h-5l2-5 6-9z" fill="#149ED4"/>
<path transform="translate(249,619)" d="m0 0 11 2v1l-7 1-3 2-7 1-1-3z" fill="#0DA4DF"/>
<path transform="translate(1206,624)" d="m0 0 5 1 4 6-1 3-3 2-3-5-1-4z" fill="#159DD3"/>
<path transform="translate(1090,656)" d="m0 0v3l-5 4-7 2-5-1 3-2h5l5-5h3z" fill="#129FD7"/>
<path transform="translate(1023,619)" d="m0 0 2 1v4l-4 2h-5l-1-3z" fill="#0DA4E0"/>
<path transform="translate(212,621)" d="m0 0 1 3-5 5-4 6-1-2-3-1 5-5 4-5z" fill="#04ABED"/>
<path transform="translate(1760,618)" d="m0 0 3 1-1 6h-6-3l2-4z" fill="#06AAEA"/>
<path transform="translate(1090,645)" d="m0 0 2 1v10l-5-2-1-6 4 1z" fill="#159DD2"/>
<path transform="translate(1687,633)" d="m0 0h1v7l3-1v9h-2l-2 2z" fill="#04ACEE"/>
<path transform="translate(1212,633)" d="m0 0h3l1 3v10h-3z" fill="#04ACEE"/>
<path transform="translate(274,636)" d="m0 0h1v23l-4-1 2-6z" fill="#04ABED"/>
<path transform="translate(770,622)" d="m0 0 6 2-1 4h-3l-4-3v-2z" fill="#07A8E7"/>
<path transform="translate(1690,650)" d="m0 0 2 3v2h2v2l-4 1-2-3v-4z" fill="#04ACEE"/>
</svg>
